# xmcd
#
# Track frame offsets:
#	150
#	29335
#	37982
#	69002
#	90845
#	113487
#	130745
#	162840
#	191147
#	215987
#	254872
#	273245
#	303662
#
# Disc length: 4498 seconds
#
# Revision: 5
# Processed by: cddbd v1.5.2PL0 Copyright (c) Steve Scherf et al.
# Submitted via: audiograbber 1.83.01
#
DISCID=b211900d
DTITLE=GlobalUnderground - GU008 - Nick Warren - Brazil [CD1)
DYEAR=1998
DGENRE=Trance
TTITLE0=PMT - Marching Powder
TTITLE1=Desert - Lose It (To The Sound)
TTITLE2=DJ Gogo - Sequenza (Version 1)
TTITLE3=E Razor - India
TTITLE4=Capricon - All I Am (Yum Yum Mix)
TTITLE5=PMT - Tequila Flange
TTITLE6=Yin Yunk - Rise and Fall (Rise Mix)
TTITLE7=Stone Factory - New Sunset
TTITLE8=Locust - No One In The World (Slacker Mix)
TTITLE9=Origin - Tidle Protaxis
TTITLE10=Junk Project - Miralaca
TTITLE11=Conscious - Northern Lights (Pob Mix)
TTITLE12=VFR - Tranceillusion (Taucher Mix)
EXTD=
EXTT0=PMT
EXTT1=Desert
EXTT2=DJ Gogo
EXTT3=E Razor
EXTT4=Capricorn
EXTT5=PMT
EXTT6=Yink Yunk
EXTT7=Stone Factory
EXTT8=Locust
EXTT9=Origin
EXTT10=Junk Project
EXTT11=Concious
EXTT12=VFR
PLAYORDER=
